# xmcd CD database file
#
# Track frame offsets:
#	150
#	14071
#	28752
#	41817
#	57961
#	71825
#	84383
#	96593
#	110154
#	123821
#	139502
#	153776
#	169410
#	181871
#	196192
#	206582
#	220287
#	236743
#	250718
#	261963
#
# Disc length: 3667 seconds
#
# Revision: 0
# Processed by: cddbd v1.5.2PL0 Copyright (c) Steve Scherf et al.
# Submitted via: CDex 1.70beta2
#
DISCID=260e5114
DTITLE=Billie Holiday - The Essential
DYEAR=2006
DGENRE=Jazz
TTITLE0=Twenty Four Hours A Day
TTITLE1=If You Were Mine
TTITLE2=You Let Me Down
TTITLE3=These Foolish Things
TTITLE4=Strange Fruit
TTITLE5=Summertime
TTITLE6=A Fine Romance
TTITLE7=Let's Call A Heart A Heart
TTITLE8=The Way You Look Tonight
TTITLE9=I Can't Give You Anything But Love
TTITLE10=God Bless The Child
TTITLE11=Solitude
TTITLE12=I've Got My Love To Keep Me Warm
TTITLE13=This Year's Kisses
TTITLE14=Please Keep Me In Your Dreams
TTITLE15=(This Is) My Last Affair
TTITLE16=Stormy Weather
TTITLE17=Carelessly
TTITLE18=How Could You?
TTITLE19=That Ole Devil Called Love
EXTD=YEAR: 2006
EXTT0=
EXTT1=
EXTT2=
EXTT3=
EXTT4=
EXTT5=
EXTT6=
EXTT7=
EXTT8=
EXTT9=
EXTT10=
EXTT11=
EXTT12=
EXTT13=
EXTT14=
EXTT15=
EXTT16=
EXTT17=
EXTT18=
EXTT19=
PLAYORDER=
